<svg width="110" height="110" viewBox="0 0 110 110" fill="none" xmlns="http://www.w3.org/2000/svg">
<path d="M103.125 30.87H81.3725C82.9331 29.8043 84.2738 28.7456 85.2087 27.7968C90.75 22.2212 90.75 13.1462 85.2087 7.57059C79.8256 2.15309 70.4344 2.14621 65.0444 7.57059C62.0675 10.5612 54.1544 22.7368 55.2475 30.87H54.7525C55.8388 22.7368 47.9325 10.5612 44.9556 7.57059C39.5656 2.14621 30.1744 2.15309 24.7913 7.57059C19.25 13.1462 19.25 22.2212 24.7844 27.7968C25.7262 28.7456 27.0669 29.8043 28.6275 30.87H6.875C3.08687 30.87 0 33.9568 0 37.745V54.9325C0 56.83 1.54 58.37 3.4375 58.37H6.875V99.62C6.875 103.408 9.96187 106.495 13.75 106.495H96.25C100.038 106.495 103.125 103.408 103.125 99.62V58.37H106.562C108.46 58.37 110 56.83 110 54.9325V37.745C110 33.9568 106.913 30.87 103.125 30.87ZM29.6656 12.4175C31.0613 11.015 32.9106 10.245 34.8769 10.245C36.8363 10.245 38.6856 11.015 40.0812 12.4175C44.715 17.0787 49.3213 28.9862 47.7194 30.6431C47.7194 30.6431 47.4306 30.87 46.4475 30.87C41.6969 30.87 32.6287 25.9337 29.6656 22.95C26.785 20.0487 26.785 15.3187 29.6656 12.4175ZM51.5625 99.62H13.75V58.37H51.5625V99.62ZM51.5625 51.495H6.875V37.745H46.4475H51.5625V51.495ZM69.9187 12.4175C72.71 9.61934 77.55 9.62621 80.3344 12.4175C83.215 15.3187 83.215 20.0487 80.3344 22.95C77.3713 25.9337 68.3031 30.87 63.5525 30.87C62.5694 30.87 62.2806 30.65 62.2737 30.6431C60.6787 28.9862 65.285 17.0787 69.9187 12.4175ZM96.25 99.62H58.4375V58.37H96.25V99.62ZM103.125 51.495H58.4375V37.745H63.5525H103.125V51.495Z" fill="#FBC436"/>
</svg>
