<svg width="110" height="110" viewBox="0 0 110 110" fill="none" xmlns="http://www.w3.org/2000/svg">
<path d="M110 12.0975H85.5428V19.0942H77.7497V12.0975H13.4418V5.37109H6.99646V12.0975H0.000610352V39.5304H21.5639L26.2275 53.5229H42.3576V67.2251H61.6264V104.651H98.8061V57.1132L110 52.4487V12.0975ZM48.8029 60.7798V53.5229H61.6272V60.7798H48.8029ZM103.554 48.1519L92.3608 52.8163V98.2046H68.0725V47.0776H30.8735L28.3583 39.5304H103.554V48.1519H103.554ZM6.44592 33.0851V18.5437H71.3036V25.5396H91.9881V18.5437H103.554V33.0851H6.44592Z" fill="#FBC436"/>
<path d="M25.1711 66.9576V60.7607H18.725V66.9576C12.4416 68.2417 7.48009 73.2024 6.19606 79.4866H0V85.9319H6.19606C7.48009 92.216 12.4416 97.1768 18.725 98.4608V104.658H25.1711V98.4608C31.4545 97.1768 36.416 92.216 37.7 85.9319H43.8961V79.4866H37.7C36.416 73.2024 31.4545 68.2417 25.1711 66.9576ZM21.9476 92.3403C16.6378 92.3403 12.3174 88.0199 12.3174 82.7092C12.3174 77.3985 16.6378 73.0782 21.9476 73.0782C27.2583 73.0782 31.5787 77.3985 31.5787 82.7092C31.5787 88.0199 27.2583 92.3403 21.9476 92.3403Z" fill="#FBC436"/>
<path d="M18.725 79.4863H25.1711V85.9325H18.725V79.4863Z" fill="#FBC436"/>
</svg>
