<svg width="110" height="110" viewBox="0 0 110 110" fill="none" xmlns="http://www.w3.org/2000/svg">
<g clip-path="url(#clip0)">
<path d="M104.5 47.6668H77V36.6668C77 35.6543 76.1792 34.8335 75.1667 34.8335C74.1541 34.8335 73.3333 35.6543 73.3333 36.6668V42.1668H60.5V33.9168C62.462 34.2846 64.4444 34.5344 66.4363 34.6648C72.208 34.6973 77.2867 30.8609 78.8333 25.3002L81.7098 14.9822C82.0948 13.6437 81.915 12.2059 81.2123 11.0034C80.5095 9.80086 79.3451 8.93848 77.99 8.61685C61.8262 3.56782 44.5071 3.56782 28.3433 8.61685C26.9879 8.93996 25.8239 9.80416 25.1225 11.0082C24.421 12.2122 24.2434 13.651 24.6308 14.9895L27.5 25.3002C29.3017 31.7396 35.746 35.7164 42.3097 34.4393C43.4793 34.2248 44.6527 34.058 45.826 33.9132V42.1668H30.2152L24.5318 35.0645C23.4913 33.7564 21.9097 32.996 20.2382 33.0002H14.6667C11.6291 33.0002 9.16667 35.4626 9.16667 38.5002V42.5042C6.97702 43.2783 5.50963 45.3444 5.5 47.6668V58.6668C5.5 61.7044 7.96243 64.1668 11 64.1668H12.2155L4.0645 91.8813C1.67445 92.5275 0.0107486 94.691 0 97.1668V99.0002C0 102.038 2.46243 104.5 5.5 104.5H22C25.0376 104.5 27.5 102.038 27.5 99.0002V97.1668C27.4937 95.0243 26.2438 93.0805 24.2972 92.1857L28.765 77.0002H38.2195C41.5511 76.9997 44.4638 74.7535 45.3108 71.5313L47.2468 64.1668H55V84.3335C55 87.3711 57.4624 89.8335 60.5 89.8335H64.1667C67.2042 89.8335 69.6667 87.3711 69.6667 84.3335V64.1668H71.5C74.5376 64.1668 77 61.7044 77 58.6668H104.5C107.538 58.6668 110 56.2044 110 53.1668C110 50.1293 107.538 47.6668 104.5 47.6668ZM41.6552 30.8387C36.96 31.7591 32.3437 28.9247 31.0402 24.3212L28.1637 14.0032C28.0634 13.5831 28.1434 13.1402 28.3844 12.7818C28.6255 12.4234 29.0054 12.1822 29.4323 12.1167C44.8869 7.28848 61.4464 7.28848 76.901 12.1167C77.3279 12.1822 77.7079 12.4234 77.9489 12.7818C78.1899 13.1402 78.27 13.5831 78.1697 14.0032L75.2932 24.3212C73.9926 28.927 69.374 31.7628 64.6782 30.8387C57.0679 29.4362 49.2654 29.4362 41.6552 30.8387ZM49.5 33.5813C51.9421 33.431 54.3912 33.431 56.8333 33.5813V42.1668H49.5V33.5813ZM12.8333 38.5002C12.8333 37.4877 13.6541 36.6668 14.6667 36.6668H20.2382C20.7954 36.6671 21.3223 36.9207 21.67 37.3562L25.5182 42.1668H12.8333V38.5002ZM16.038 64.1668H28.7173L20.6287 91.6668H7.94933L16.038 64.1668ZM23.8333 99.0002C23.8333 100.013 23.0125 100.834 22 100.834H5.5C4.48748 100.834 3.66667 100.013 3.66667 99.0002V97.1668C3.66667 96.1543 4.48748 95.3335 5.5 95.3335H22C23.0125 95.3335 23.8333 96.1543 23.8333 97.1668V99.0002ZM41.7652 70.6C41.3413 72.2107 39.885 73.3334 38.2195 73.3335H29.843L32.538 64.1668H36.8922L34.9653 68.9867C34.6954 69.5999 34.7816 70.3115 35.1899 70.8426C35.5983 71.3738 36.2639 71.6399 36.9258 71.5366C37.5878 71.4334 38.1408 70.9773 38.368 70.347L40.8412 64.1668H43.45L41.7652 70.6ZM66 84.3335C66 85.346 65.1792 86.1668 64.1667 86.1668H60.5C59.4875 86.1668 58.6667 85.346 58.6667 84.3335V64.1668H66V84.3335ZM71.5 60.5002H11C9.98748 60.5002 9.16667 59.6794 9.16667 58.6668V47.6668C9.16667 46.6543 9.98748 45.8335 11 45.8335H73.3333V58.6668C73.3333 59.6794 72.5125 60.5002 71.5 60.5002ZM104.5 55.0002H77V51.3335H104.5C105.513 51.3335 106.333 52.1543 106.333 53.1668C106.333 54.1794 105.513 55.0002 104.5 55.0002Z" fill="#FBC436"/>
<path d="M41.3472 23.4774C40.8194 23.7968 40.1781 23.8685 39.5929 23.6733C39.0078 23.4781 38.5378 23.0358 38.3075 22.4636C38.09 22.0286 37.7085 21.6978 37.2471 21.5441C36.7857 21.3905 36.2821 21.4264 35.8472 21.6441C32.7103 23.2116 37.5393 29.4779 42.9862 26.7573C43.5774 26.4675 43.9679 25.8831 44.0092 25.226C44.0505 24.5689 43.7362 23.9401 43.186 23.5786C42.6357 23.2172 41.9338 23.1785 41.3472 23.4774Z" fill="#FBC436"/>
<path d="M18.3334 49.5H14.6667C13.6542 49.5 12.8334 50.3208 12.8334 51.3333C12.8334 52.3459 13.6542 53.1667 14.6667 53.1667H18.3334C19.3459 53.1667 20.1667 52.3459 20.1667 51.3333C20.1667 50.3208 19.3459 49.5 18.3334 49.5Z" fill="#FBC436"/>
<path d="M47.6667 49.5H25.6667C24.6542 49.5 23.8334 50.3208 23.8334 51.3333C23.8334 52.3459 24.6542 53.1667 25.6667 53.1667H47.6667C48.6792 53.1667 49.5 52.3459 49.5 51.3333C49.5 50.3208 48.6792 49.5 47.6667 49.5Z" fill="#FBC436"/>
<path d="M100.833 84.4988C100.998 80.4651 98.94 76.6652 95.4716 74.5993C92.0032 72.5333 87.6817 72.5333 84.2133 74.5993C80.7449 76.6652 78.6868 80.4651 78.8516 84.4988C73.8872 85.3201 70.113 89.4053 69.6866 94.419C69.2602 99.4328 72.2902 104.097 77.0446 105.745C81.7989 107.393 87.0654 105.604 89.8333 101.402C92.6011 105.601 97.8637 107.388 102.616 105.743C107.368 104.098 110.399 99.4393 109.979 94.4281C109.558 89.417 105.793 85.329 100.833 84.4988ZM89.8333 77.0004C91.8075 76.9999 93.6985 77.7954 95.0786 79.207C96.4588 80.6185 97.2115 82.5269 97.1666 84.5006C94.1693 85.0086 91.5153 86.7331 89.8333 89.2654C88.9848 87.9911 87.8811 86.9068 86.5919 86.0809C87.4097 85.8956 87.9926 85.1722 87.9999 84.3338C87.9521 83.8311 88.1324 83.3335 88.4912 82.9782C88.8501 82.623 89.3494 82.4476 89.8516 82.5004C90.8641 82.4954 91.6808 81.6705 91.6758 80.6579C91.6707 79.6454 90.8458 78.8287 89.8333 78.8338C88.3618 78.7907 86.9377 79.3564 85.8968 80.3973C84.8559 81.4382 84.2902 82.8623 84.3333 84.3338C84.3333 85.4943 85.2225 84.9608 82.5091 84.5006C82.4642 82.5285 83.2157 80.6215 84.5939 79.2103C85.9721 77.799 87.8607 77.0024 89.8333 77.0004ZM80.6666 102.667C76.6165 102.667 73.3333 99.3839 73.3333 95.3338C73.3333 91.2837 76.6165 88.0004 80.6666 88.0004C84.7167 88.0004 87.9999 91.2837 87.9999 95.3338C87.9999 99.3839 84.7167 102.667 80.6666 102.667ZM98.9999 102.667C94.9499 102.667 91.6666 99.3839 91.6666 95.3338C91.6666 91.2837 94.9499 88.0004 98.9999 88.0004C103.05 88.0004 106.333 91.2837 106.333 95.3338C106.333 99.3839 103.05 102.667 98.9999 102.667Z" fill="#FBC436"/>
<path d="M80.6667 89.8333C79.1952 89.7903 77.7712 90.3559 76.7302 91.3969C75.6893 92.4378 75.1237 93.8619 75.1667 95.3334C75.1667 96.3459 75.9875 97.1667 77 97.1667C78.0126 97.1667 78.8334 96.3459 78.8334 95.3334C78.7855 94.8307 78.9658 94.3331 79.3247 93.9778C79.6835 93.6225 80.1829 93.4471 80.685 93.5C81.6976 93.495 82.5143 92.67 82.5092 91.6575C82.5041 90.645 81.6792 89.8283 80.6667 89.8333Z" fill="#FBC436"/>
<path d="M99 89.8333C97.5285 89.7903 96.1044 90.3559 95.0635 91.3969C94.0226 92.4378 93.4569 93.8619 93.5 95.3334C93.5 96.3459 94.3208 97.1667 95.3333 97.1667C96.3458 97.1667 97.1666 96.3459 97.1666 95.3334C97.1188 94.8307 97.2991 94.3331 97.6579 93.9778C98.0168 93.6225 98.5161 93.4471 99.0183 93.5C99.6733 93.4967 100.277 93.1443 100.601 92.5754C100.926 92.0065 100.923 91.3077 100.592 90.7421C100.262 90.1765 99.655 89.8301 99 89.8333Z" fill="#FBC436"/>
</g>
<defs>
<clipPath id="clip0">
<rect width="110" height="110" fill="white"/>
</clipPath>
</defs>
</svg>
