<svg width="110" height="110" viewBox="0 0 110 110" fill="none" xmlns="http://www.w3.org/2000/svg">
<path d="M44.5801 13.7549C27.586 13.7549 13.7604 27.5745 13.7604 44.5611C13.7604 61.5477 27.586 75.3667 44.5801 75.3667C61.5743 75.3667 75.3995 61.5477 75.3995 44.5611C75.3995 27.5745 61.5743 13.7549 44.5801 13.7549ZM44.5801 72.7892C29.0076 72.7892 16.3385 60.1261 16.3385 44.5611C16.3385 28.9961 29.0072 16.333 44.5801 16.333C60.1531 16.333 72.8214 28.9961 72.8214 44.5611C72.8214 60.1261 60.1522 72.7886 44.5801 72.7886V72.7892Z" fill="#FBC436"/>
<path d="M83.7306 72.1395C83.4889 71.8979 83.161 71.7621 82.8192 71.7621C82.4774 71.7621 82.1496 71.8979 81.9079 72.1395L80.9376 73.1096L77.1459 69.3201C82.5813 62.212 85.5222 53.5104 85.5134 44.5622C85.5134 22.0006 67.1507 3.64648 44.5801 3.64648C22.0094 3.64648 3.64587 22.0006 3.64587 44.5622C3.64587 67.1238 22.0086 85.4779 44.5801 85.4779C53.5316 85.4871 62.2369 82.5473 69.3503 77.1132L73.1418 80.9026L72.1265 81.9175C72.0067 82.0372 71.9117 82.1793 71.8469 82.3358C71.7821 82.4922 71.7487 82.6599 71.7487 82.8292C71.7487 82.9985 71.7821 83.1662 71.8469 83.3226C71.9117 83.479 72.0067 83.6212 72.1265 83.7409L92.3555 103.961C93.8936 105.496 95.9782 106.358 98.1513 106.357C100.324 106.356 102.408 105.492 103.945 103.955C104.051 103.85 104.155 103.742 104.256 103.632C107.162 100.432 107.022 95.3687 103.952 92.3523L83.7306 72.1395ZM6.224 44.5622C6.224 23.4229 23.4302 6.22461 44.5801 6.22461C65.7299 6.22461 82.9357 23.4229 82.9357 44.5622C82.9357 65.7015 65.7288 82.8998 44.5801 82.8998C23.4313 82.8998 6.224 65.7017 6.224 44.5622ZM71.3627 75.4799C72.8423 74.1974 74.2289 72.8113 75.512 71.3322L79.114 74.9321L74.9648 79.0798L71.3627 75.4799ZM102.346 101.899C102.278 101.974 102.208 102.046 102.13 102.123C101.075 103.178 99.6438 103.771 98.1516 103.773C96.6594 103.774 95.2277 103.183 94.1703 102.13L74.8606 82.8291L82.8192 74.8736L102.137 94.1842C103.15 95.2002 103.736 96.5654 103.775 97.9999C103.814 99.4344 103.303 100.829 102.346 101.899Z" fill="#FBC436"/>
<path d="M58.9961 26.4258H33.6901C31.0449 26.4258 28.7891 28.5098 28.7891 31.1545V59.333C28.7891 59.3508 28.8417 59.3684 28.8426 59.386C28.8426 59.4163 28.8677 59.429 28.8677 59.4597C28.8758 60.7322 29.3878 61.9496 30.2918 62.8453C31.1957 63.741 32.4178 64.2419 33.6903 64.2383H57.1252C57.2939 64.2426 57.4617 64.2136 57.6191 64.1529C57.7764 64.0921 57.9202 64.0009 58.0422 63.8843C58.1642 63.7678 58.2619 63.6283 58.3297 63.4739C58.3976 63.3194 58.4342 63.1531 58.4375 62.9844V57.3633H58.9961C59.3573 57.3432 59.6982 57.1894 59.9523 56.9319C60.2065 56.6744 60.3558 56.3315 60.3711 55.97V27.6472C60.3711 26.9354 59.7081 26.4258 58.9961 26.4258ZM31.3672 31.1545C31.3672 29.9314 32.467 29.0039 33.6901 29.0039H36.3086V54.7851H33.6903C32.8936 54.7677 32.1022 54.9177 31.3672 55.2256V31.1545ZM55.8594 61.6601H33.6903C33.4024 61.6693 33.1157 61.6204 32.8471 61.5165C32.5785 61.4127 32.3335 61.2559 32.1266 61.0555C31.9198 60.8551 31.7553 60.6152 31.643 60.35C31.5307 60.0848 31.4728 59.7997 31.4728 59.5117C31.4728 59.2237 31.5307 58.9386 31.643 58.6735C31.7553 58.4083 31.9198 58.1683 32.1266 57.9679C32.3335 57.7675 32.5785 57.6107 32.8471 57.5069C33.1157 57.403 33.4024 57.3542 33.6903 57.3633H55.8594V61.6601ZM57.793 54.7851H38.8867V29.0039H57.793V54.7851Z" fill="#FBC436"/>
</svg>
